<svg xmlns="http://www.w3.org/2000/svg" width="288" height="58" viewBox="0 0 288 58">
  <g id="logo_plain" transform="translate(-3228 272)">
    <g id="Rectangle_75" data-name="Rectangle 75" transform="translate(3284 -272)" fill="#fff" stroke="#eee" stroke-width="1">
      <rect width="232" height="58" stroke="none"/>
      <rect x="0.5" y="0.5" width="231" height="57" fill="none"/>
    </g>
    <rect id="Rectangle_74" data-name="Rectangle 74" width="56" height="58" transform="translate(3228 -272)" fill="#da1f3d"/>
    <path id="Path_501" data-name="Path 501" d="M20.454-22.05H14.322L10.5-14.994,6.678-22.05H.63L7.056-11.592-.21,0h6.3L10.5-8.064,14.952,0h6.216l-7.14-11.592Zm.462,4.032h2.772v11.34c0,5.586,1.764,6.93,7.56,6.93,5.712,0,7.392-2.016,7.308-8.694H33.894c0,2.31.336,4.662-2.646,4.662-2.226,0-2.226-.924-2.268-2.94v-11.3h8.442V-22.05H28.98v-5H23.688v5H20.916Zm20.16-4.032V0h5.292V-13.608c-.084-2.856.84-4.662,3.99-4.662,2.478,0,2.688,1.3,2.688,3.528v1.134H58v-1.764c0-4.158-1.134-6.93-5.8-6.93-2.562,0-4.83.714-5.88,3.15h-.21l.126-2.9ZM70.56-9.912c2.6,0,4.872.084,4.872,3.15,0,3.15-2.058,3.4-4.872,3.4-3.57,0-4.83-.294-4.83-3.4C65.73-9.912,67.872-9.912,70.56-9.912ZM75.432,0h5.292V-13.818c0-7.392-2.94-8.484-10-8.484-5.04,0-9.45.252-9.45,6.678H66.57c0-2.856,1.848-3.066,4.158-3.066,4.41,0,4.7,1.26,4.7,4.83V-11h-.168c-1.26-2.478-3.906-2.52-6.594-2.52-5.46,0-8.232,1.47-8.232,6.762C60.438-.8,63.672.252,68.67.252c2.562,0,5.8-.084,6.846-3.024h.126ZM99.918-8.4c0,3.864-.42,4.62-4.746,4.62C90.51-3.78,90.594-5.5,90.594-11c0-5.67.042-7.266,4.578-7.266,3.7,0,4.746.588,4.746,3.948h5.292c0-6.972-3.486-7.98-10.038-7.98-8.652,0-9.87,3.57-9.87,11.3C85.3-2.1,87.066.252,95.172.252c7.434,0,10.038-1.428,10.038-8.652Zm6.51-9.618H109.2v11.34c0,5.586,1.764,6.93,7.56,6.93,5.712,0,7.392-2.016,7.308-8.694h-4.662c0,2.31.336,4.662-2.646,4.662-2.226,0-2.226-.924-2.268-2.94v-11.3h8.442V-22.05h-8.442v-5H109.2v5h-2.772ZM136.584-22.3c-9.2,0-10.374,2.73-10.374,11.3,0,8.526,1.176,11.256,10.374,11.256S146.958-2.478,146.958-11C146.958-19.572,145.782-22.3,136.584-22.3Zm0,4.032c4.7,0,5.082,1.344,5.082,7.308,0,5.88-.378,7.182-5.082,7.182s-5.082-1.3-5.082-7.182C131.5-16.926,131.88-18.27,136.584-18.27Zm14.448-3.78V0h5.292V-13.608c-.084-2.856.84-4.662,3.99-4.662,2.478,0,2.688,1.3,2.688,3.528v1.134h4.956v-1.764c0-4.158-1.134-6.93-5.8-6.93-2.562,0-4.83.714-5.88,3.15h-.21l.126-2.9Z" transform="translate(3297 -230)" fill="#807874"/>
    <path id="Path_503" data-name="Path 503" d="M7.6-22.05H2.31V0H7.6Zm0-9.45H2.31v4.494H7.6ZM9.828-18.018H12.6v11.34c0,5.586,1.764,6.93,7.56,6.93,5.712,0,7.392-2.016,7.308-8.694H22.806c0,2.31.336,4.662-2.646,4.662-2.226,0-2.226-.924-2.268-2.94v-11.3h8.442V-22.05H17.892v-5H12.6v5H9.828ZM36.792-5.754H31.5V0h5.292Z" transform="translate(3238 -230)" fill="#fff"/>
    <path id="Path_502" data-name="Path 502" d="M16.08-12.64h.1L15.94,0h2.88V-15H14.1l-4,11.14h-.08L5.94-15H1.32V0H4.2L3.96-12.58h.06L8.78,0h2.58ZM20.8-4.78v.7c0,4.3,2.96,4.2,6.28,4.2,3.86,0,5.86-.36,5.86-4.58,0-3.82-1.26-4.06-5.88-4.34-2.92-.18-3.3-.24-3.3-2.08,0-1.6.46-1.88,3.32-1.88,2.02,0,2.68.06,2.68,1.68v.48h2.88v-.48c0-3.94-2.5-4.04-5.56-4.04-3.6,0-6.2.12-6.2,4.24,0,4.36,2.56,4.24,5.8,4.44,2.24.12,3.38-.16,3.38,1.98,0,1.74-.36,2.22-2.98,2.22-2.66,0-3.4-.12-3.4-1.84v-.7Z" transform="translate(3466 -244)" fill="#807874"/>
  </g>
</svg>
