<svg xmlns="http://www.w3.org/2000/svg" width="247.147" height="59" viewBox="0 0 247.147 59">
  <g id="Group_4" data-name="Group 4" transform="translate(-501.853 -168)">
    <g id="data-collection" transform="translate(501.853 176.342)">
      <path id="Path_39" data-name="Path 39" d="M27.511,52.691v6.5L8,53.5V47Z" transform="translate(-3.935 -11.229)" fill="#ed6571"/>
      <path id="Path_40" data-name="Path 40" d="M51.511,47v6.5L32,59.195v-6.5Z" transform="translate(-8.424 -11.229)" fill="#68607c"/>
      <path id="Path_41" data-name="Path 41" d="M27.511,40l19.511,5.691L27.511,51.382,8,45.691Z" transform="translate(-3.935 -9.92)" fill="#f69489"/>
      <path id="Path_42" data-name="Path 42" d="M31,23h1.626V43.324H31Z" transform="translate(-8.237 -6.741)" fill="#68607c"/>
      <path id="Path_43" data-name="Path 43" d="M31.12,48.269l-3.827-3.827,1.15-1.15L31.12,45.97,33.8,43.293l1.15,1.15Z" transform="translate(-7.543 -10.536)" fill="#68607c"/>
      <path id="Path_44" data-name="Path 44" d="M41.12,38.269l-3.827-3.827,1.15-1.15L41.12,35.97,43.8,33.293l1.15,1.15Z" transform="translate(-9.414 -8.666)" fill="#68607c"/>
      <path id="Path_45" data-name="Path 45" d="M42.626,35.195H41V31.943a4.069,4.069,0,0,1,4.065-4.065H47.5a2.442,2.442,0,0,0,2.439-2.439V23h1.626v2.439A4.069,4.069,0,0,1,47.5,29.5H45.065a2.442,2.442,0,0,0-2.439,2.439Z" transform="translate(-10.107 -6.741)" fill="#68607c"/>
      <path id="Path_46" data-name="Path 46" d="M21.12,38.269l-3.827-3.827,1.15-1.15L21.12,35.97,23.8,33.293l1.15,1.15Z" transform="translate(-5.673 -8.666)" fill="#68607c"/>
      <path id="Path_47" data-name="Path 47" d="M20.569,35.195H18.943V31.943A2.442,2.442,0,0,0,16.5,29.5H14.065A4.069,4.069,0,0,1,10,25.439V23h1.626v2.439a2.442,2.442,0,0,0,2.439,2.439H16.5a4.069,4.069,0,0,1,4.065,4.065Z" transform="translate(-4.309 -6.741)" fill="#68607c"/>
      <path id="Path_48" data-name="Path 48" d="M45,20.885V3h8.13l4.878,4.878V20.885Z" transform="translate(-10.855 -3)" fill="#91cbd7"/>
      <path id="Path_49" data-name="Path 49" d="M59.878,7.878H55V3Z" transform="translate(-12.725 -3)" fill="#4e9bb9"/>
      <path id="Path_50" data-name="Path 50" d="M24,20.885V3h8.13l4.878,4.878V20.885Z" transform="translate(-6.928 -3)" fill="#91cbd7"/>
      <path id="Path_51" data-name="Path 51" d="M3,20.885V3h8.13l4.878,4.878V20.885Z" transform="translate(-3 -3)" fill="#91cbd7"/>
      <path id="Path_52" data-name="Path 52" d="M38.878,7.878H34V3Z" transform="translate(-8.798 -3)" fill="#4e9bb9"/>
      <path id="Path_53" data-name="Path 53" d="M17.878,7.878H13V3Z" transform="translate(-4.87 -3)" fill="#4e9bb9"/>
      <g id="Group_3" data-name="Group 3" transform="translate(2.439 4.065)">
        <path id="Path_54" data-name="Path 54" d="M27,12h8.13v1.626H27Z" transform="translate(-9.928 -8.748)" fill="#68607c"/>
        <path id="Path_55" data-name="Path 55" d="M27,16h8.13v1.626H27Z" transform="translate(-9.928 -9.496)" fill="#68607c"/>
        <path id="Path_56" data-name="Path 56" d="M27,8h3.252V9.626H27Z" transform="translate(-9.928 -8)" fill="#68607c"/>
        <path id="Path_57" data-name="Path 57" d="M6,12h8.13v1.626H6Z" transform="translate(-6 -8.748)" fill="#68607c"/>
        <path id="Path_58" data-name="Path 58" d="M6,16h8.13v1.626H6Z" transform="translate(-6 -9.496)" fill="#68607c"/>
        <path id="Path_59" data-name="Path 59" d="M6,20h8.13v1.626H6Z" transform="translate(-6 -10.244)" fill="#68607c"/>
        <path id="Path_60" data-name="Path 60" d="M6,8H9.252V9.626H6Z" transform="translate(-6 -8)" fill="#68607c"/>
        <path id="Path_61" data-name="Path 61" d="M48,12h8.13v1.626H48Z" transform="translate(-13.855 -8.748)" fill="#68607c"/>
        <path id="Path_62" data-name="Path 62" d="M48,16h8.13v1.626H48Z" transform="translate(-13.855 -9.496)" fill="#68607c"/>
        <path id="Path_63" data-name="Path 63" d="M48,20h8.13v1.626H48Z" transform="translate(-13.855 -10.244)" fill="#68607c"/>
        <path id="Path_64" data-name="Path 64" d="M48,8h3.252V9.626H48Z" transform="translate(-13.855 -8)" fill="#68607c"/>
        <path id="Path_65" data-name="Path 65" d="M27,20h1.626v1.626H27Z" transform="translate(-9.928 -10.244)" fill="#68607c"/>
        <path id="Path_66" data-name="Path 66" d="M31,20h1.626v1.626H31Z" transform="translate(-10.676 -10.244)" fill="#68607c"/>
        <path id="Path_67" data-name="Path 67" d="M35,20h1.626v1.626H35Z" transform="translate(-11.424 -10.244)" fill="#68607c"/>
      </g>
    </g>
    <text id="DATA_" data-name="DATA " transform="translate(559 200)" fill="#707070" font-size="33" font-family="Montserrat-Bold, Montserrat" font-weight="700"><tspan x="0" y="0">DATA</tspan><tspan y="0" font-size="19"> </tspan></text>
    <text id="COLLECTION_TOOL" data-name="COLLECTION TOOL" transform="translate(560 222)" fill="#707070" font-size="19" font-family="Montserrat-Bold, Montserrat" font-weight="700"><tspan x="0" y="0">COLLECTION TOOL</tspan></text>
  </g>
</svg>
