<svg xmlns="http://www.w3.org/2000/svg" width="264.196" height="38.924" viewBox="0 0 264.196 38.924">
  <g id="itelligence" transform="translate(0 -0.01)">
    <g id="Group_802" data-name="Group 802" transform="translate(0 0.053)">
      <path id="Path_449" data-name="Path 449" d="M8.274,9.283H0V31.261H8.274V9.283Zm0-9.223H0V6.524H8.274V.06Z" transform="translate(0 -0.06)" fill="#da1f3d" fill-rule="evenodd"/>
      <path id="Path_450" data-name="Path 450" d="M16.367,24.594c0,6.077,4.4,7.671,9.481,7.671h3.275c6.594,0,9.352-3.189,9.352-7.369V22.224h-7.24v1.465c0,2.026-.733,2.629-3.4,2.629-1.982,0-3.189-.345-3.189-1.982V15.889H37.484V9.942H24.642V4.77H16.367V9.942H12.23v5.947h4.137v8.705Z" transform="translate(-1.689 -0.71)" fill="#da1f3d"/>
      <path id="Path_451" data-name="Path 451" d="M45.38,22.609c0,9.395,5.775,10.429,11.248,10.429h6.206c5.99,0,10.9-1.207,10.9-6.723v-.948H65.98c0,1.293-.215,2.5-4.7,2.5H58.74c-3.448,0-5.085-.646-5.085-2.974V23.557H73.737V19.851c0-7.628-3.62-9.481-12.412-9.481H55.551c-6.033,0-10.171,1.81-10.171,10.128v2.112Zm8.274-3.965c0-2.629.646-3.1,6.033-3.1,4.827,0,6.033.474,6.033,3.1Z" transform="translate(-6.266 -1.484)" fill="#807874" fill-rule="evenodd"/>
      <path id="Path_452" data-name="Path 452" d="M81.72,31.27h8.274V.06H81.72Z" transform="translate(-11.284 -0.06)" fill="#807874"/>
      <path id="Path_453" data-name="Path 453" d="M96.51,31.27h8.274V.06H96.51Z" transform="translate(-13.326 -0.06)" fill="#807874"/>
      <path id="Path_454" data-name="Path 454" d="M119.564.06H111.29V6.524h8.274Z" transform="translate(-15.367 -0.06)" fill="#da1f3d"/>
      <path id="Path_455" data-name="Path 455" d="M119.564,10.76H111.29V32.748h8.274Z" transform="translate(-15.367 -1.537)" fill="#807874"/>
      <path id="Path_456" data-name="Path 456" d="M124.37,22.006c0,5.947,2.456,9.136,10.472,9.136H139.2c4.4,0,5.775-.646,7.413-2.284v1.465c0,3.706-1.767,4.87-5.387,4.87h-5.99c-1.336,0-2.026-.646-2.026-1.681h-8.533c0,5.516,3.146,6.852,8.705,6.852h9.136c10.386,0,11.851-4.482,11.851-9.05v-20.6h-7.757v3.017h-.086c-2.069-2.844-3.06-3.361-7.24-3.361h-4.827c-6.594,0-10.084,1.81-10.084,8.619v3.017ZM137.428,25.2c-4.094,0-5.042-1.077-5.042-4.4,0-3.361.948-4.482,5.042-4.482h4.051c4.094,0,5.042,1.12,5.042,4.482,0,3.318-.948,4.4-5.042,4.4Z" transform="translate(-17.173 -1.484)" fill="#807874" fill-rule="evenodd"/>
      <path id="Path_457" data-name="Path 457" d="M162.56,22.609c0,9.395,5.775,10.429,11.248,10.429h6.206c5.99,0,10.9-1.207,10.9-6.723v-.948H183.16c0,1.293-.215,2.5-4.7,2.5H175.92c-3.448,0-5.085-.646-5.085-2.974V23.557h20.083V19.851c0-7.628-3.62-9.481-12.412-9.481h-5.775c-6.033,0-10.171,1.81-10.171,10.128v2.112Zm8.274-3.965c0-2.629.646-3.1,6.033-3.1,4.827,0,6.033.474,6.033,3.1Z" transform="translate(-22.446 -1.484)" fill="#807874" fill-rule="evenodd"/>
      <path id="Path_458" data-name="Path 458" d="M198.85,32.694h8.274V21.618c0-3.146,2.112-4.784,5.646-4.784h1.9c3.62,0,5.344,1.077,5.344,3.232V32.694h8.274V20.067c0-9.481-7.154-9.7-12.282-9.7-4.439,0-7.326.819-8.792,3.879h-.086V10.715H198.85V32.694Z" transform="translate(-27.457 -1.484)" fill="#807874"/>
      <path id="Path_459" data-name="Path 459" d="M236.39,22.609c0,9.395,5.775,10.429,11.248,10.429h8.447c4.741,0,9.654-1.681,9.654-7.585V23.514h-8.016v.517c0,2.026-2.112,2.543-4.439,2.543H249.06c-2.586,0-4.4-.862-4.4-3.706V19.937c0-2.413,1.638-3.361,5.085-3.361h3.189c3.62,0,4.784.819,4.784,3.06h8.016V17.653c0-5.042-3.749-7.283-9.869-7.283h-9.309c-6.033,0-10.171,1.81-10.171,10.128v2.112Z" transform="translate(-32.641 -1.484)" fill="#807874"/>
      <path id="Path_460" data-name="Path 460" d="M273.62,22.609c0,9.395,5.775,10.429,11.248,10.429h6.206c5.99,0,10.9-1.207,10.9-6.723v-.948H294.22c0,1.293-.216,2.5-4.7,2.5H286.98c-3.448,0-5.085-.646-5.085-2.974V23.557h20.083V19.851c0-7.628-3.62-9.481-12.412-9.481h-5.775c-6.033,0-10.171,1.81-10.171,10.128v2.112Zm8.274-3.965c0-2.629.646-3.1,6.033-3.1,4.827,0,6.033.474,6.033,3.1Z" transform="translate(-37.782 -1.484)" fill="#807874" fill-rule="evenodd"/>
    </g>
    <path id="Path_461" data-name="Path 461" d="M125.25.08H126.4L131.6,5.726V.08h.767V6.5h-1.146L126.017.864V6.5h-.767V.08Z" transform="translate(-17.295 -0.01)"/>
    <path id="Path_462" data-name="Path 462" d="M137.3.8h-2.87V.08h6.516V.787h-2.87V6.5h-.767V.8Z" transform="translate(-18.562 -0.01)"/>
    <path id="Path_463" data-name="Path 463" d="M145.12.8h-2.87V.08h6.516V.787H145.9V6.5h-.767V.8Z" transform="translate(-19.642 -0.01)"/>
    <path id="Path_464" data-name="Path 464" d="M155.06.08h4.594c1.9,0,2.422.672,2.422,3.215,0,2.362-.517,3.206-2.448,3.206H155.06Zm6.249,2.9c0-1.853-.509-2.189-1.457-2.189h-4.025v5h3.9c.931,0,1.577-.233,1.577-2.155Z" transform="translate(-21.411 -0.01)"/>
    <path id="Path_465" data-name="Path 465" d="M167.36.08h.957L171.7,6.5h-.871l-.707-1.353h-4.551L164.861,6.5h-.871Zm.474.715-1.9,3.646h3.818Z" transform="translate(-22.644 -0.01)"/>
    <path id="Path_466" data-name="Path 466" d="M175.21.8h-2.87V.08h6.516V.787h-2.87V6.5h-.767V.8Z" transform="translate(-23.797 -0.01)"/>
    <path id="Path_467" data-name="Path 467" d="M182.67.08h.957L187.006,6.5h-.871l-.707-1.353h-4.551L180.171,6.5H179.3Zm.483.715-1.9,3.646h3.818Z" transform="translate(-24.758 -0.01)"/>
    <path id="Path_468" data-name="Path 468" d="M193.52.08h4.853c1.181,0,1.508.69,1.508,1.431v.552a.947.947,0,0,1-.922,1.008v.034c.6.034,1.138.293,1.138,1.267v.767c0,.9-.707,1.362-1.646,1.362h-4.93Zm5.585,1.388c0-.586-.569-.672-.81-.672h-4.008V2.847h3.973c.414,0,.845-.147.845-.784Zm.224,3.008c0-.8-.4-.922-1.095-.922h-3.948V5.795h4.068c.715,0,.974-.293.974-.862Z" transform="translate(-26.721 -0.01)"/>
    <path id="Path_469" data-name="Path 469" d="M207,6.031h-.017c-.25.7-.776.853-1.62.853h-1.017c-1.258,0-1.663-.715-1.663-1.534V2.29h.672V5.16c0,.664.164,1.1,1.474,1.1H205c1.577,0,1.939-.336,1.939-1.4V2.29h.672V6.815h-.629V6.031Z" transform="translate(-27.986 -0.315)"/>
    <path id="Path_470" data-name="Path 470" d="M209.81,5.234h.629v.224c0,.56.259.793.948.793h1.448c1.008,0,1.336-.043,1.336-.715V5.493c0-.431-.112-.672-.914-.672H211.18c-.948,0-1.3-.345-1.3-1.207V3.346c0-.733.371-1.146,2.034-1.146h1.034c1.526,0,1.732.5,1.732,1.138v.241h-.629V3.536c0-.69-.405-.707-1.146-.707h-1.181c-.965,0-1.181.1-1.181.621v.172c0,.371.112.586.819.586h1.784c1.008,0,1.7.112,1.7,1.336v.017c0,1.267-1.034,1.31-1.862,1.31h-1.241c-1,0-1.931,0-1.931-1.353Z" transform="translate(-28.971 -0.302)"/>
    <path id="Path_471" data-name="Path 471" d="M217.15.08h.672V.916h-.672Zm0,1.9h.672V6.51h-.672Z" transform="translate(-29.984 -0.01)"/>
    <path id="Path_472" data-name="Path 472" d="M219.61,2.279h.629v.784h.017c.25-.7.776-.853,1.62-.853h1.008c1.267,0,1.663.715,1.663,1.534V6.8h-.672V3.925c0-.664-.164-1.1-1.474-1.1h-.172c-1.577,0-1.939.336-1.939,1.4V6.8h-.672V2.279Z" transform="translate(-30.324 -0.304)"/>
    <path id="Path_473" data-name="Path 473" d="M226.69,4.027c0-1.638,1.008-1.827,1.965-1.827h1.086c1.207,0,2.077.345,2.077,1.957v.509h-4.448V4.95c0,1.026.44,1.293,1.62,1.293h.922c.845,0,1.189-.121,1.233-.819h.672V5.51c0,1.034-.758,1.345-2.017,1.345h-1.224c-.879,0-1.888-.19-1.888-1.853Zm4.456-.284c0-.457-.31-.922-1.4-.922h-.991c-1.069,0-1.319.2-1.379,1.224h3.775Z" transform="translate(-31.301 -0.302)"/>
    <path id="Path_474" data-name="Path 474" d="M233.79,5.234h.629v.224c0,.56.259.793.948.793h1.448c1.017,0,1.336-.043,1.336-.715V5.493c0-.431-.112-.672-.922-.672h-2.077c-.948,0-1.3-.345-1.3-1.207V3.346c0-.733.371-1.146,2.034-1.146h1.034c1.526,0,1.732.5,1.732,1.138v.241h-.629V3.536c0-.69-.405-.707-1.146-.707h-1.181c-.965,0-1.181.1-1.181.621v.172c0,.371.112.586.819.586h1.784c1.017,0,1.707.112,1.707,1.336v.017c0,1.267-1.034,1.31-1.862,1.31h-1.241c-1,0-1.931,0-1.931-1.353Z" transform="translate(-32.282 -0.302)"/>
    <path id="Path_475" data-name="Path 475" d="M240.85,5.234h.629v.224c0,.56.259.793.948.793h1.448c1.017,0,1.336-.043,1.336-.715V5.493c0-.431-.112-.672-.922-.672h-2.077c-.948,0-1.3-.345-1.3-1.207V3.346c0-.733.371-1.146,2.034-1.146h1.034c1.526,0,1.732.5,1.732,1.138v.241h-.629V3.536c0-.69-.405-.707-1.146-.707h-1.181c-.965,0-1.181.1-1.181.621v.172c0,.371.112.586.819.586h1.784c1.008,0,1.707.112,1.707,1.336v.017c0,1.267-1.034,1.31-1.862,1.31h-1.241c-1,0-1.931,0-1.931-1.353V5.234Z" transform="translate(-33.257 -0.302)"/>
    <path id="Path_476" data-name="Path 476" d="M252.53,4.475h.724v.457c0,.629.3.931,1.258.931H256.9c1.112,0,1.448-.267,1.448-1.189,0-.81-.284-1.008-1.241-1.008H255.65c-2.344,0-3.12-.164-3.12-1.862,0-1.465.767-1.793,2.353-1.793h1.655c1.9,0,2.387.552,2.387,1.7v.224H258.2c-.017-1.017-.112-1.207-2.129-1.207h-.819c-1.483,0-2.008.086-2.008,1.146,0,.758.216,1.017,1.414,1.017h2.275c1.5,0,2.129.491,2.129,1.577V4.88c0,1.577-1.146,1.689-2.284,1.689h-2.138c-1.12,0-2.112-.224-2.112-1.62Z" transform="translate(-34.869 0)"/>
    <path id="Path_477" data-name="Path 477" d="M261.26,4.036c0-1.491.931-1.836,2.215-1.836h.965c1.276,0,2.215.345,2.215,1.836v.991c0,1.491-.931,1.836-2.215,1.836h-.965c-1.276,0-2.215-.345-2.215-1.836Zm4.715.043c0-1.052-.552-1.258-1.336-1.258h-1.37c-.784,0-1.336.207-1.336,1.258v.905c0,1.052.552,1.258,1.336,1.258h1.37c.784,0,1.336-.207,1.336-1.258Z" transform="translate(-36.075 -0.302)"/>
    <path id="Path_478" data-name="Path 478" d="M268.81.08h.672V6.5h-.672Z" transform="translate(-37.117 -0.01)"/>
    <path id="Path_479" data-name="Path 479" d="M275.35,6.031h-.017c-.25.7-.776.853-1.62.853H272.7c-1.267,0-1.663-.715-1.663-1.534V2.29h.672V5.16c0,.664.164,1.1,1.474,1.1h.172c1.577,0,1.939-.336,1.939-1.4V2.29h.672V6.815h-.629V6.031Z" transform="translate(-37.425 -0.315)"/>
    <path id="Path_480" data-name="Path 480" d="M278.379,2.729H277.5V2.117h.879V1.04h.672V2.117h2.681v.612h-2.681v2.25c0,.845.259,1.1,1,1.1h.207c.9,0,1.034-.215,1.034-1.164V4.591h.552v.5c0,.905-.078,1.62-1.543,1.62h-.371c-1.267,0-1.56-.69-1.56-1.431V2.729Z" transform="translate(-38.317 -0.142)"/>
    <path id="Path_481" data-name="Path 481" d="M283.48.08h.672V.916h-.672Zm0,1.9h.672V6.51h-.672Z" transform="translate(-39.143 -0.01)"/>
    <path id="Path_482" data-name="Path 482" d="M285.55,4.036c0-1.491.931-1.836,2.215-1.836h.965c1.276,0,2.215.345,2.215,1.836v.991c0,1.491-.931,1.836-2.215,1.836h-.965c-1.276,0-2.215-.345-2.215-1.836Zm4.723.043c0-1.052-.552-1.258-1.336-1.258h-1.37c-.784,0-1.336.207-1.336,1.258v.905c0,1.052.552,1.258,1.336,1.258h1.37c.784,0,1.336-.207,1.336-1.258Z" transform="translate(-39.429 -0.302)"/>
    <path id="Path_483" data-name="Path 483" d="M293,2.279h.629v.784h.017c.25-.7.776-.853,1.62-.853h1.008c1.267,0,1.664.715,1.664,1.534V6.8h-.672V3.925c0-.664-.164-1.1-1.474-1.1h-.172c-1.577,0-1.939.336-1.939,1.4V6.8H293Z" transform="translate(-40.458 -0.304)"/>
    <path id="Path_484" data-name="Path 484" d="M299.89,5.234h.629v.224c0,.56.259.793.948.793h1.448c1.008,0,1.336-.043,1.336-.715V5.493c0-.431-.112-.672-.922-.672h-2.077c-.948,0-1.3-.345-1.3-1.207V3.346c0-.733.371-1.146,2.034-1.146h1.034c1.526,0,1.732.5,1.732,1.138v.241h-.629V3.536c0-.69-.405-.707-1.146-.707h-1.181c-.965,0-1.181.1-1.181.621v.172c0,.371.112.586.819.586h1.784c1.017,0,1.707.112,1.707,1.336v.017c0,1.267-1.034,1.31-1.862,1.31h-1.241c-1,0-1.931,0-1.931-1.353Z" transform="translate(-41.409 -0.302)"/>
  </g>
</svg>
