<svg xmlns="http://www.w3.org/2000/svg" width="1360" height="768" viewBox="0 0 1360 768">
  <g id="Group_812" data-name="Group 812" transform="translate(1426 390)">
    <rect id="Rectangle_73" data-name="Rectangle 73" width="1360" height="768" transform="translate(-1426 -390)" fill="#da1f3d"/>
    <g id="Group_805" data-name="Group 805" transform="translate(-2202.002 -367.665)">
      <path id="Path_485" data-name="Path 485" d="M1488.924,216.446l-.262-.22L1418.3,156.869,962.515,52.45l-.035-.029L874.886-21.812l.241-.284,87.559,74.2,455.786,104.419.035.029,70.133,59.165,29.354-237.7.368.046Z" transform="translate(45.5 0.116)" fill="#fff"/>
      <path id="Path_486" data-name="Path 486" d="M1414.775,518.486l-228.89-414.648,67.779,222.985-.354.107L1184.5,100.564l230.6,417.742Z" transform="translate(715.652 59.562)" fill="#fff"/>
      <path id="Path_487" data-name="Path 487" d="M1303.97,386.566l-.093-.17L1080.191-21.881l.325-.18L1304.11,386.047l159.413-96.808-74.371-73.04.261-.264,74.711,73.374-.2.123Z" transform="translate(665.098 0.133)" fill="#fff"/>
      <path id="Path_488" data-name="Path 488" d="M1077.272,627.6l-.028-.5-7.478-141.258L781.928,450.325l.26-.267L1053.11,171.231l-.045-.855.4.846L1196.221,471.5l203.974-266.634.3.227L1196.4,471.877l14.943,31.433-.336-.042-35.292-4.354Zm-7.132-141.714,7.448,140.686,97.7-127.713Zm105.839,12.683,34.738,4.286-14.57-30.649Zm-105.859-13.06,105.432,13.008,20.417-26.688-142.434-299.6ZM782.713,450.047l287.032,35.416-16.607-313.727Z" transform="translate(0.449 93.396)" fill="#fff"/>
      <path id="Path_489" data-name="Path 489" d="M781,439.448l619.721-245.881.136.345L784.537,438.445l279.156-49.435.064.365Z" transform="translate(0 104.636)" fill="#fff"/>
      <path id="Path_490" data-name="Path 490" d="M1283.987,634.932l-43.145-536.58.371-.029,42.965,534.344,101.607-401.782.359.09Z" transform="translate(742.957 58.476)" fill="#fff"/>
      <path id="Path_491" data-name="Path 491" d="M1366.787,617.391l-.349-.113L1070.8,521.425l.062-.18,133.869-388.467.172.518Zm-295.517-96.2L1366.2,616.812,1204.72,133.933Z" transform="translate(501.806 75.174)" fill="#fff"/>
      <path id="Path_492" data-name="Path 492" d="M1311.551,162.006l-.175-.2L1186.135,13.823l-247.41,38.7L923.845-21.885l.364-.071L939.019,52.1l246.835-38.61L1155.982-21.8l.285-.241,30.016,35.467,227.528-35.588-.185.333ZM1186.564,13.756l124.922,147.6L1413.118-21.679Z" transform="translate(327.005 0.083)" fill="#fff"/>
      <g id="Group_803" data-name="Group 803" transform="translate(1568.312 243.3)" opacity="0.25">
        <path id="Path_493" data-name="Path 493" d="M1130.688,597.1l-.329-.534-89.892-146.024.407.071,92.569,16.068,3.24-135.1-.1-.193.258-.033,212.105-27.824.044.016,89.35,33.749,154.179,66.2-.512.14-97.372,26.7-.1-.356,96.859-26.562-153.194-65.776-89.3-33.731-211.756,27.778,35.83,72.023,187.654,102.78-1.1-.192L1133.8,467.118Zm-89.474-146.05,89.131,144.788,3.088-128.782Zm92.6,15.7,224.686,39L1172.7,403.981l-.027-.053-35.636-71.637Z" transform="translate(-1040.466 -183.372)" fill="#fff"/>
        <path id="Path_494" data-name="Path 494" d="M1359.322,546.162l-.043-.811-10.624-202.1L1172.828,443.23,1040.8,490.193l-.125-.35,132-46.949,175.947-100.046-19.7-120.252.474.7L1431.517,374.08l-.039.092Zm-10.3-203.114,10.588,201.474,71.492-170.4L1329.564,224.2l19.465,118.84Z" transform="translate(-1040.364 -222.596)" fill="#fff"/>
        <path id="Path_495" data-name="Path 495" d="M1255.64,544.957l-.362-.073,64.734-321.421.249.323L1488,442.146l-.3.226L1320.215,224.337Z" transform="translate(-936.359 -222.175)" fill="#fff"/>
      </g>
      <g id="Group_804" data-name="Group 804" transform="translate(894.003 -22.335)" opacity="0.55">
        <path id="Path_496" data-name="Path 496" d="M1386.028,177.018l-145.472-19.869,18.862-179.188,1.108.116-18.749,178.115,144.4,19.724Z" transform="translate(-151.185 22.478)" fill="#fff"/>
        <path id="Path_497" data-name="Path 497" d="M1042.078,439.711l211.851-278.488.255-.015,81.623-4.859L1098.491-21.392l.582-.943,299.639,149.82,83.318-44.4.526.983-83.826,44.674L1104.118-18.568l234.789,175.847-81.917,4.879,151.544,53.728-.284.564-85.365,170.486-.272.051Zm212.337-277.287-209.7,275.657,277.419-52.138,84.837-169.429Z" transform="translate(-247.376 22.335)" fill="#fff"/>
        <path id="Path_498" data-name="Path 498" d="M1121.408,688.67l-78.875-299.128.355-.215,172.219-104.419,191.835-118.093-8.995-87.74,1.108-.113,9.067,88.436-.3.183L1215.688,285.858,1043.821,390.064l78.663,298.322Z" transform="translate(-247.156 71.428)" fill="#fff"/>
        <path id="Path_499" data-name="Path 499" d="M1414.662,560.388l-.207-1.1-57.72-304.874L1119.58,464.095l-.358-.249L970.708,360.667l107.023-55.357.51.989-105.38,54.507L1119.5,462.683l237.968-210.4.181.963,57.694,304.736,102.8-113.488.827.748Z" transform="translate(-281.965 155.426)" fill="#fff"/>
        <path id="Path_500" data-name="Path 500" d="M857.116,576.606l169.259-251.482.925.621L860.276,573.906l314.08-146.324.47,1.009Z" transform="translate(-857.116 190.729)" fill="#fff"/>
      </g>
    </g>
  </g>
</svg>
